<?xml version="1.0" encoding="utf-8"?>
<!-- Generator: Adobe Illustrator 22.0.0, SVG Export Plug-In . SVG Version: 6.00 Build 0)  -->
<svg version="1.1" id="Слой_1" xmlns="http://www.w3.org/2000/svg" xmlns:xlink="http://www.w3.org/1999/xlink" x="0px" y="0px"
	 viewBox="0 0 120 120" style="enable-background:new 0 0 120 120;" xml:space="preserve">
<style type="text/css">
	.st0{fill:#E30613;}
</style>
<g>
	<g>
		<path class="st0" d="M45.6,5.6v108.9h-6.2V12.1L27.3,114.4h-0.6h-4.7h-0.6L9.2,12.1v102.3H3V5.6h5.4h0.8h4.6l10.5,88.9L34.8,5.6
			h4.6h0.8H45.6z"/>
		<path class="st0" d="M68.7,106.4L78.7,5.6H85L73.5,114.4H63.4L51.7,5.6h7L68.7,106.4z"/>
	</g>
	<path d="M117,49.4h-6.5V20.1c0-5.5-2.2-8.9-7.2-8.9c-4.9,0-7.2,3.3-7.2,8.9v79.8c0,5.5,2.3,8.9,7.2,8.9c5,0,7.2-3.3,7.2-8.9V64
		h-6.3v-6.2H117v41.8c0,9.3-4.4,15.5-13.9,15.5c-9.4,0-13.8-6.2-13.8-15.5V20.4c0-9.3,4.4-15.5,13.8-15.5c9.5,0,13.9,6.2,13.9,15.5
		V49.4z"/>
</g>
</svg>
